#Comment line ignore any data following # character 
#Hierarchical Translation and Rotation (.htr) file 
[Header]	
#Header keywords are followed by a single value 
FileType HTR		#Single word string
DataType HTRS		#Translation followed by rotation and scale data
FileVersion 1		#integer
NumSegments 84		#integer
NumFrames 2		#integer
DataFrameRate 30		#integer, data frame rate in this file
EulerRotationOrder ZYX
CalibrationUnits mm
RotationUnits Degrees
GlobalAxisofGravity Y
BoneLengthAxis Y
ScaleFactor 1.00
[SegmentNames&Hierarchy]
#CHILD	PARENT
MASTER GLOBAL
root MASTER
chest root
L_mid_tent01 root
R_mid_tent01 root
spine01 root
Bip01_Neck chest
L_humerus chest
R_humerus chest
weapon_bone chest
Bip01_Head Bip01_Neck
eye_left_bone Bip01_Head
eye_right_bone Bip01_Head
L_forearm L_humerus
L_front_hand L_forearm
L_weapon_bone L_forearm
L_front_hand01_01 L_front_hand
L_front_hand02_01 L_front_hand
L_front_hand03_01 L_front_hand
L_front_hand01_02 L_front_hand01_01
L_front_hand02_02 L_front_hand02_01
L_front_hand03_02 L_front_hand03_01
R_forearm R_humerus
R_front_hand R_forearm
R_weapon_bone R_forearm
R_front_hand01_01 R_front_hand
R_front_hand02_01 R_front_hand
R_front_hand03_01 R_front_hand
R_front_hand01_02 R_front_hand01_01
R_front_hand02_02 R_front_hand02_01
R_front_hand03_02 R_front_hand03_01
null_rope01_connect L_mid_tent01
Rope1_Seg01 null_rope01_connect
Rope1_Seg02 Rope1_Seg01
Rope1_Seg03 Rope1_Seg02
Rope1_Seg04 Rope1_Seg03
Rope1_Seg05 Rope1_Seg04
Rope1_Seg06 Rope1_Seg05
Rope1_Seg07 Rope1_Seg06
Rope1_Seg09 Rope1_Seg07
L_mid_hand01 Rope1_Seg09
L_mid_hand02 Rope1_Seg09
L_mid_hand03 Rope1_Seg09
null_rope02_connect R_mid_tent01
Rope2_Seg01 null_rope02_connect
Rope2_Seg02 Rope2_Seg01
Rope2_Seg03 Rope2_Seg02
Rope2_Seg04 Rope2_Seg03
Rope2_Seg05 Rope2_Seg04
Rope2_Seg06 Rope2_Seg05
Rope2_Seg07 Rope2_Seg06
Rope2_Seg09 Rope2_Seg07
R_mid_hand01 Rope2_Seg09
R_mid_hand02 Rope2_Seg09
R_mid_hand03 Rope2_Seg09
spine02 spine01
spine03 spine02
pelvis spine03
null_rope03_connect pelvis
null_rope04_connect pelvis
Rope3_Seg01 null_rope03_connect
Rope3_Seg02 Rope3_Seg01
Rope3_Seg03 Rope3_Seg02
Rope3_Seg04 Rope3_Seg03
Rope3_Seg05 Rope3_Seg04
Rope3_Seg06 Rope3_Seg05
Rope3_Seg07 Rope3_Seg06
Rope3_Seg08 Rope3_Seg07
Rope3_Seg09 Rope3_Seg08
R_rear_hand01 Rope3_Seg09
R_rear_hand02 Rope3_Seg09
R_rear_hand03 Rope3_Seg09
Rope4_Seg01 null_rope04_connect
Rope4_Seg02 Rope4_Seg01
Rope4_Seg03 Rope4_Seg02
Rope4_Seg04 Rope4_Seg03
Rope4_Seg05 Rope4_Seg04
Rope4_Seg06 Rope4_Seg05
Rope4_Seg07 Rope4_Seg06
Rope4_Seg08 Rope4_Seg07
Rope4_Seg09 Rope4_Seg08
L_rear_hand01 Rope4_Seg09
L_rear_hand02 Rope4_Seg09
L_rear_hand03 Rope4_Seg09
[BasePosition]
#SegmentName Tx, Ty, Tz, Rx, Ry, Rz, BoneLength
MASTER 0.000000 0.000000 0.000000 -90.000000 0.000000 0.000000 10.000000 
root 0.000000 0.000000 0.000000 0.000000 0.000000 0.000000 10.000000 
chest 0.000000 0.000000 0.000000 0.000000 0.000000 0.000000 10.000000 
L_mid_tent01 0.000000 0.000000 0.000000 0.000000 0.000000 0.000000 10.000000 
R_mid_tent01 0.000000 0.000000 0.000000 0.000000 0.000000 0.000000 10.000000 
spine01 0.000000 0.000000 0.000000 0.000000 0.000000 0.000000 10.000000 
Bip01_Neck 0.000000 0.000000 0.000000 0.000000 0.000000 0.000000 10.000000 
L_humerus 0.000000 0.000000 0.000000 0.000000 0.000000 0.000000 10.000000 
R_humerus 0.000000 0.000000 0.000000 0.000000 0.000000 0.000000 10.000000 
weapon_bone 0.000000 0.000000 0.000000 0.000000 0.000000 0.000000 10.000000 
Bip01_Head 0.000000 0.000000 0.000000 0.000000 0.000000 0.000000 10.000000 
eye_left_bone 0.000000 0.000000 0.000000 0.000000 0.000000 0.000000 10.000000 
eye_right_bone 0.000000 0.000000 0.000000 0.000000 0.000000 0.000000 10.000000 
L_forearm 0.000000 0.000000 0.000000 0.000000 0.000000 0.000000 10.000000 
L_front_hand 0.000000 0.000000 0.000000 0.000000 0.000000 0.000000 10.000000 
L_weapon_bone 0.000000 0.000000 0.000000 0.000000 0.000000 0.000000 10.000000 
L_front_hand01_01 0.000000 0.000000 0.000000 0.000000 0.000000 0.000000 10.000000 
L_front_hand02_01 0.000000 0.000000 0.000000 0.000000 0.000000 0.000000 10.000000 
L_front_hand03_01 0.000000 0.000000 0.000000 0.000000 0.000000 0.000000 10.000000 
L_front_hand01_02 0.000000 0.000000 0.000000 0.000000 0.000000 0.000000 10.000000 
L_front_hand02_02 0.000000 0.000000 0.000000 0.000000 0.000000 0.000000 10.000000 
L_front_hand03_02 0.000000 0.000000 0.000000 0.000000 0.000000 0.000000 10.000000 
R_forearm 0.000000 0.000000 0.000000 0.000000 0.000000 0.000000 10.000000 
R_front_hand 0.000000 0.000000 0.000000 0.000000 0.000000 0.000000 10.000000 
R_weapon_bone 0.000000 0.000000 0.000000 0.000000 0.000000 0.000000 10.000000 
R_front_hand01_01 0.000000 0.000000 0.000000 0.000000 0.000000 0.000000 10.000000 
R_front_hand02_01 0.000000 0.000000 0.000000 0.000000 0.000000 0.000000 10.000000 
R_front_hand03_01 0.000000 0.000000 0.000000 0.000000 0.000000 0.000000 10.000000 
R_front_hand01_02 0.000000 0.000000 0.000000 0.000000 0.000000 0.000000 10.000000 
R_front_hand02_02 0.000000 0.000000 0.000000 0.000000 0.000000 0.000000 10.000000 
R_front_hand03_02 0.000000 0.000000 0.000000 0.000000 0.000000 0.000000 10.000000 
null_rope01_connect 0.000000 0.000000 0.000000 0.000000 0.000000 0.000000 10.000000 
Rope1_Seg01 0.000000 0.000000 0.000000 0.000000 0.000000 0.000000 10.000000 
Rope1_Seg02 0.000000 0.000000 0.000000 0.000000 0.000000 0.000000 10.000000 
Rope1_Seg03 0.000000 0.000000 0.000000 0.000000 0.000000 0.000000 10.000000 
Rope1_Seg04 0.000000 0.000000 0.000000 0.000000 0.000000 0.000000 10.000000 
Rope1_Seg05 0.000000 0.000000 0.000000 0.000000 0.000000 0.000000 10.000000 
Rope1_Seg06 0.000000 0.000000 0.000000 0.000000 0.000000 0.000000 10.000000 
Rope1_Seg07 0.000000 0.000000 0.000000 0.000000 0.000000 0.000000 10.000000 
Rope1_Seg09 0.000000 0.000000 0.000000 0.000000 0.000000 0.000000 10.000000 
L_mid_hand01 0.000000 0.000000 0.000000 0.000000 0.000000 0.000000 10.000000 
L_mid_hand02 0.000000 0.000000 0.000000 0.000000 0.000000 0.000000 10.000000 
L_mid_hand03 0.000000 0.000000 0.000000 0.000000 0.000000 0.000000 10.000000 
null_rope02_connect 0.000000 0.000000 0.000000 0.000000 0.000000 0.000000 10.000000 
Rope2_Seg01 0.000000 0.000000 0.000000 0.000000 0.000000 0.000000 10.000000 
Rope2_Seg02 0.000000 0.000000 0.000000 0.000000 0.000000 0.000000 10.000000 
Rope2_Seg03 0.000000 0.000000 0.000000 0.000000 0.000000 0.000000 10.000000 
Rope2_Seg04 0.000000 0.000000 0.000000 0.000000 0.000000 0.000000 10.000000 
Rope2_Seg05 0.000000 0.000000 0.000000 0.000000 0.000000 0.000000 10.000000 
Rope2_Seg06 0.000000 0.000000 0.000000 0.000000 0.000000 0.000000 10.000000 
Rope2_Seg07 0.000000 0.000000 0.000000 0.000000 0.000000 0.000000 10.000000 
Rope2_Seg09 0.000000 0.000000 0.000000 0.000000 0.000000 0.000000 10.000000 
R_mid_hand01 0.000000 0.000000 0.000000 0.000000 0.000000 0.000000 10.000000 
R_mid_hand02 0.000000 0.000000 0.000000 0.000000 0.000000 0.000000 10.000000 
R_mid_hand03 0.000000 0.000000 0.000000 0.000000 0.000000 0.000000 10.000000 
spine02 0.000000 0.000000 0.000000 0.000000 0.000000 0.000000 10.000000 
spine03 0.000000 0.000000 0.000000 0.000000 0.000000 0.000000 10.000000 
pelvis 0.000000 0.000000 0.000000 0.000000 0.000000 0.000000 10.000000 
null_rope03_connect 0.000000 0.000000 0.000000 0.000000 0.000000 0.000000 10.000000 
null_rope04_connect 0.000000 0.000000 0.000000 0.000000 0.000000 0.000000 10.000000 
Rope3_Seg01 0.000000 0.000000 0.000000 0.000000 0.000000 0.000000 10.000000 
Rope3_Seg02 0.000000 0.000000 0.000000 0.000000 0.000000 0.000000 10.000000 
Rope3_Seg03 0.000000 0.000000 0.000000 0.000000 0.000000 0.000000 10.000000 
Rope3_Seg04 0.000000 0.000000 0.000000 0.000000 0.000000 0.000000 10.000000 
Rope3_Seg05 0.000000 0.000000 0.000000 0.000000 0.000000 0.000000 10.000000 
Rope3_Seg06 0.000000 0.000000 0.000000 0.000000 0.000000 0.000000 10.000000 
Rope3_Seg07 0.000000 0.000000 0.000000 0.000000 0.000000 0.000000 10.000000 
Rope3_Seg08 0.000000 0.000000 0.000000 0.000000 0.000000 0.000000 10.000000 
Rope3_Seg09 0.000000 0.000000 0.000000 0.000000 0.000000 0.000000 10.000000 
R_rear_hand01 0.000000 0.000000 0.000000 0.000000 0.000000 0.000000 10.000000 
R_rear_hand02 0.000000 0.000000 0.000000 0.000000 0.000000 0.000000 10.000000 
R_rear_hand03 0.000000 0.000000 0.000000 0.000000 0.000000 0.000000 10.000000 
Rope4_Seg01 0.000000 0.000000 0.000000 0.000000 0.000000 0.000000 10.000000 
Rope4_Seg02 0.000000 0.000000 0.000000 0.000000 0.000000 0.000000 10.000000 
Rope4_Seg03 0.000000 0.000000 0.000000 0.000000 0.000000 0.000000 10.000000 
Rope4_Seg04 0.000000 0.000000 0.000000 0.000000 0.000000 0.000000 10.000000 
Rope4_Seg05 0.000000 0.000000 0.000000 0.000000 0.000000 0.000000 10.000000 
Rope4_Seg06 0.000000 0.000000 0.000000 0.000000 0.000000 0.000000 10.000000 
Rope4_Seg07 0.000000 0.000000 0.000000 0.000000 0.000000 0.000000 10.000000 
Rope4_Seg08 0.000000 0.000000 0.000000 0.000000 0.000000 0.000000 10.000000 
Rope4_Seg09 0.000000 0.000000 0.000000 0.000000 0.000000 0.000000 10.000000 
L_rear_hand01 0.000000 0.000000 0.000000 0.000000 0.000000 0.000000 10.000000 
L_rear_hand02 0.000000 0.000000 0.000000 0.000000 0.000000 0.000000 10.000000 
L_rear_hand03 0.000000 0.000000 0.000000 0.000000 0.000000 0.000000 10.000000 
#Beginning of Data. Separated by tabs
#Fr	Tx	Ty	Tz	Rx	Ry	Rz	SF
[MASTER]
17 -0.000309 1600.474243 0.000071 0.001660 0.001660 0.001660 1600.474243
18 -0.000329 1700.504150 0.000075 0.001660 0.001660 0.001660 1700.504150
[root]
17 -30.213375 19.888456 1456.434814 -91.720840 -11.580053 -89.467972 1456.884033
18 -26.827845 18.297415 1456.113159 -91.717293 -11.580055 -89.464325 1456.475342
[chest]
17 -84.512650 -34.090519 0.000000 -2.168796 -0.034933 167.513885 91.129311
18 -84.512650 -34.090519 0.000000 -2.169403 -0.024462 167.807236 91.129311
[L_mid_tent01]
17 27.299110 22.179136 -249.918701 -20.131783 8.901405 14.969473 252.381683
18 27.299112 22.179129 -249.918701 -20.257298 9.740975 14.455182 252.381683
[R_mid_tent01]
17 23.228794 24.509907 226.238495 -166.774567 -16.168570 25.936462 228.744751
18 23.228794 24.509907 226.238495 -166.569580 -16.726620 25.823944 228.744751
[spine01]
17 -0.361383 -0.195265 0.000000 -0.000001 -0.000007 22.052340 0.410763
18 -0.361383 -0.195265 0.000000 -0.000001 -0.000007 22.052340 0.410763
[Bip01_Neck]
17 165.484543 71.581718 0.000119 176.643677 -1.657967 43.431911 180.302734
18 165.484543 71.581718 0.000119 176.643677 -1.657967 43.431911 180.302734
[L_humerus]
17 -13.983130 -135.272980 -120.471481 -4.978851 74.540665 81.950157 181.680161
18 -13.983130 -135.272980 -120.471481 -5.037883 73.016815 82.723534 181.680161
[R_humerus]
17 -13.983309 -135.273102 125.287651 34.238728 -73.393036 61.071980 184.909012
18 -13.983309 -135.273102 125.287651 32.296906 -72.486992 63.105709 184.909012
[weapon_bone]
17 235.964890 -300.705902 0.000000 0.000000 -89.951546 -128.212341 382.234833
18 235.964890 -300.705902 0.000000 0.000000 -89.951546 -128.212341 382.234833
[Bip01_Head]
17 213.370667 185.920395 9.132700 4.439760 -0.689333 -43.902359 283.155151
18 213.338776 186.009064 7.986848 4.439051 -0.436210 -43.900154 283.154724
[eye_left_bone]
17 -24.626970 125.451866 -64.772606 0.000000 -90.000000 -99.840431 143.318359
18 -24.626970 125.451866 -64.772606 0.000000 -90.000000 -99.840431 143.318359
[eye_right_bone]
17 -24.626970 125.451866 64.327362 0.000000 -89.965736 80.156380 143.117676
18 -24.626970 125.451866 64.327362 0.000000 -89.965736 80.156380 143.117676
[L_forearm]
17 322.776093 0.000000 -0.000119 0.000396 -0.002314 -109.419975 322.776093
18 322.776093 0.000000 -0.000119 0.000396 -0.002314 -109.419975 322.776093
[L_front_hand]
17 241.149185 -0.042021 -3.300071 -178.667953 -1.835447 -27.422342 241.171753
18 241.149185 -0.042021 -3.300071 -178.667953 -1.835447 -27.422350 241.171753
[L_weapon_bone]
17 156.183838 0.000000 0.000000 0.000014 0.000007 0.000001 156.183838
18 156.183838 0.000000 0.000000 0.000014 0.000007 0.000001 156.183838
[L_front_hand01_01]
17 86.095154 20.947098 -0.655860 -0.282467 -0.528169 66.067474 88.609184
18 86.095154 20.947098 -0.655860 -0.289102 -0.524108 66.611076 88.609184
[L_front_hand02_01]
17 86.935165 -11.437475 24.513514 141.960785 -54.937954 -46.642345 91.046425
18 86.935165 -11.437475 24.513514 142.580521 -55.269005 -47.395390 91.046425
[L_front_hand03_01]
17 86.637497 -14.123976 -20.424902 -142.303543 53.163303 -48.671032 90.126129
18 86.637497 -14.123976 -20.424902 -142.879883 53.494282 -49.391998 90.126129
[L_front_hand01_02]
17 71.020905 -0.000179 0.000030 0.000315 -0.002326 -105.421257 71.020905
18 71.020905 -0.000179 0.000030 0.000315 -0.002326 -105.441971 71.020905
[L_front_hand02_02]
17 71.020927 -0.000119 0.000060 0.000315 -0.002326 -105.421257 71.020927
18 71.020927 -0.000119 0.000060 0.000315 -0.002326 -105.441971 71.020927
[L_front_hand03_02]
17 71.020905 -0.000060 0.000060 0.000315 -0.002326 -105.421257 71.020905
18 71.020905 -0.000060 0.000060 0.000315 -0.002326 -105.441971 71.020905
[R_forearm]
17 322.776428 -0.000060 0.000030 0.202103 0.065158 -108.062820 322.776428
18 322.776428 -0.000060 0.000030 0.202103 0.065158 -108.062805 322.776428
[R_front_hand]
17 238.847015 -0.006795 2.210259 -2.635298 -10.645461 -26.312506 238.857239
18 238.847015 -0.006795 2.210259 -2.635298 -10.645461 -26.312506 238.857239
[R_weapon_bone]
17 155.664093 0.002503 -0.000030 0.003487 0.001180 -90.988930 155.664078
18 155.664093 0.002503 -0.000030 0.003487 0.001180 -90.988930 155.664078
[R_front_hand01_01]
17 87.624611 14.231146 22.918642 -139.271561 -53.333107 43.426708 91.683487
18 87.624611 14.231146 22.918642 -140.217056 -53.925083 44.603302 91.683487
[R_front_hand02_01]
17 89.356956 14.367283 -19.491137 140.080994 51.767307 46.104946 92.579636
18 89.356956 14.367283 -19.491137 140.984955 52.347908 47.247566 92.579636
[R_front_hand03_01]
17 87.286232 -22.307278 -0.143439 0.071479 -0.448702 -63.787704 90.091743
18 87.286232 -22.307278 -0.143439 0.075044 -0.448119 -64.698723 90.091743
[R_front_hand01_02]
17 71.020905 0.000060 0.000119 0.002323 -0.000334 106.381714 71.020905
18 71.020905 0.000060 0.000119 0.002323 -0.000334 106.381714 71.020905
[R_front_hand02_02]
17 71.020844 -0.000030 -0.000119 0.002323 -0.000334 106.381714 71.020836
18 71.020844 -0.000030 -0.000119 0.002323 -0.000334 106.381714 71.020836
[R_front_hand03_02]
17 71.020905 0.000000 0.000030 0.002323 -0.000334 106.381714 71.020905
18 71.020905 0.000000 0.000030 0.002323 -0.000334 106.381714 71.020905
[null_rope01_connect]
17 328.732483 0.000000 -0.000238 -162.199387 -66.525528 -112.616791 328.732483
18 328.732483 0.000000 -0.000238 -160.050781 -66.108498 -114.398987 328.732483
[Rope1_Seg01]
17 -0.000031 0.000008 0.000122 51.866707 0.786077 -118.379189 0.000126
18 -0.000032 0.000006 0.000130 47.994099 1.710455 -120.199326 0.000134
[Rope1_Seg02]
17 139.999863 -0.000179 0.000000 6.248344 4.216006 0.212059 139.999863
18 139.999863 -0.000179 0.000000 7.291518 4.267127 1.052266 139.999863
[Rope1_Seg03]
17 139.999924 0.000060 -0.000060 0.504657 2.843402 -2.662524 139.999924
18 139.999924 0.000060 -0.000060 2.554156 3.474125 -1.504650 139.999924
[Rope1_Seg04]
17 139.999924 -0.000060 -0.000119 3.323175 4.467114 -1.403711 139.999924
18 139.999924 -0.000060 -0.000119 4.096612 4.640547 -0.842683 139.999924
[Rope1_Seg05]
17 139.999832 0.000119 -0.000060 23.370113 11.845448 11.999150 139.999832
18 139.999832 0.000119 -0.000060 21.051989 10.357347 10.701974 139.999832
[Rope1_Seg06]
17 139.999954 0.000119 -0.000060 8.781639 7.040897 3.191992 139.999954
18 139.999954 0.000119 -0.000060 8.795738 6.411676 3.357168 139.999954
[Rope1_Seg07]
17 139.999985 0.000060 0.000000 3.249257 3.341118 0.725078 139.999985
18 139.999985 0.000060 0.000000 3.400128 3.158175 0.857686 139.999985
[Rope1_Seg09]
17 121.602913 0.000119 -0.000089 -89.793175 -1.359789 0.847147 121.602913
18 121.602913 0.000119 -0.000089 -89.793175 -1.359789 0.847147 121.602913
[L_mid_hand01]
17 103.859421 1.038730 8.195221 126.075401 -65.098549 -33.991913 104.187431
18 103.859421 1.038730 8.195221 129.242508 -66.931091 -37.458965 104.187431
[L_mid_hand02]
17 105.572853 -4.139662 -10.864139 -166.035263 42.723965 -69.273842 106.211075
18 105.572853 -4.139662 -10.864139 -168.136536 43.236561 -72.353096 106.211075
[L_mid_hand03]
17 104.641464 17.579376 -3.913581 -7.014418 17.452778 71.596474 106.179977
18 104.641464 17.579376 -3.913581 -6.285011 17.719219 74.000862 106.179977
[null_rope02_connect]
17 328.732849 0.000179 -0.000119 -141.334946 70.455284 -34.893890 328.732849
18 328.732849 0.000179 -0.000119 -140.812698 69.886337 -34.379505 328.732849
[Rope2_Seg01]
17 0.000095 0.000153 0.000061 30.371222 0.643851 -40.397720 0.000190
18 0.000095 0.000153 0.000065 35.644897 1.855954 -38.251156 0.000191
[Rope2_Seg02]
17 139.999741 -0.000060 -0.000119 -22.440660 -3.555255 -7.754899 139.999756
18 139.999741 -0.000060 -0.000119 -21.413490 -4.191678 -7.442260 139.999756
[Rope2_Seg03]
17 140.000107 0.000030 0.000000 -5.327412 0.399910 -2.616473 140.000107
18 140.000107 0.000030 0.000000 -5.594768 0.359452 -2.813839 140.000107
[Rope2_Seg04]
17 139.999802 0.000000 -0.000060 -6.333326 0.454555 -3.367428 139.999802
18 139.999802 0.000000 -0.000060 -4.297971 0.466147 -2.396567 139.999802
[Rope2_Seg05]
17 139.999985 -0.000060 0.000119 -28.935360 2.094787 -25.417831 139.999985
18 139.999985 -0.000060 0.000119 -33.058067 -2.199922 -26.215101 139.999985
[Rope2_Seg06]
17 139.999893 -0.000030 -0.000119 -10.218784 11.862268 -18.830196 139.999893
18 139.999893 -0.000030 -0.000119 -13.048444 11.572542 -22.560556 139.999893
[Rope2_Seg07]
17 139.999893 0.000060 -0.000060 -1.896964 5.786607 -6.546009 139.999893
18 139.999893 0.000060 -0.000060 -2.137976 5.891224 -7.240462 139.999893
[Rope2_Seg09]
17 121.338966 0.000089 -0.000060 33.793236 -1.359788 -0.847141 121.338966
18 121.338966 0.000089 -0.000060 33.793236 -1.359788 -0.847141 121.338966
[R_mid_hand01]
17 104.680779 11.144459 -10.335981 -28.450209 39.729855 52.441807 105.778534
18 104.680779 11.144459 -10.335981 -24.361822 42.075417 58.684319 105.778534
[R_mid_hand02]
17 104.070427 2.443552 8.231699 63.903580 -55.672924 22.558943 104.424065
18 104.070427 2.443552 8.231699 59.930573 -60.321316 27.236155 104.424065
[R_mid_hand03]
17 106.028137 -11.221827 -5.996406 -173.263687 14.341302 -61.789295 106.788818
18 106.028137 -11.221827 -5.996406 -174.631485 14.897619 -67.203430 106.788818
[spine02]
17 129.756927 0.001550 0.000119 0.360061 -4.044797 -12.915058 129.756927
18 129.756927 0.001550 0.000119 0.360061 -4.044797 -12.915058 129.756927
[spine03]
17 78.613998 0.081737 -4.898993 1.896495 3.831288 16.473045 78.766541
18 78.613991 0.081737 -4.898993 1.896495 3.831288 16.473045 78.766525
[pelvis]
17 169.435242 0.051022 0.000000 -0.060465 -0.180225 14.087930 169.435257
18 169.435242 0.051022 0.000000 -0.060465 -0.180225 14.087930 169.435257
[null_rope03_connect]
17 -1.257226 -2.466202 137.391083 155.402283 -89.385788 -93.502769 137.418976
18 -1.257226 -2.466202 137.391083 155.005020 -89.387703 -93.105598 137.418976
[null_rope04_connect]
17 -1.259640 -2.480268 -137.844437 155.402283 -89.385788 -93.502769 137.872513
18 -1.259640 -2.480268 -137.844437 155.005020 -89.387703 -93.105598 137.872513
[Rope3_Seg01]
17 -0.000027 -0.000122 0.000000 9.609525 35.307186 -95.682663 0.000125
18 -0.000027 -0.000130 0.000000 11.808015 35.484871 -91.987701 0.000133
[Rope3_Seg02]
17 139.999924 -0.000119 0.000060 0.137397 -2.460949 7.518343 139.999924
18 139.999924 -0.000119 0.000060 -0.126136 -2.324555 7.023038 139.999924
[Rope3_Seg03]
17 139.999924 -0.000119 0.000119 -0.758762 -3.253237 10.134767 139.999924
18 139.999924 -0.000119 0.000119 -0.949027 -3.013943 9.139756 139.999924
[Rope3_Seg04]
17 139.999924 0.000119 0.000000 -6.992812 -5.622905 25.784910 139.999924
18 139.999924 0.000119 0.000000 -6.281631 -4.649975 23.117216 139.999924
[Rope3_Seg05]
17 139.999924 -0.000238 0.000060 -3.211709 -4.128067 5.560459 139.999924
18 139.999924 -0.000238 0.000060 -3.778757 -4.369056 6.676086 139.999924
[Rope3_Seg06]
17 139.999893 -0.000119 -0.000060 4.235408 6.002531 -33.903839 139.999893
18 139.999893 -0.000119 -0.000060 4.670710 3.758031 -32.743507 139.999893
[Rope3_Seg07]
17 139.999771 0.000060 -0.000119 -1.220765 1.325146 -19.204638 139.999771
18 139.999771 0.000060 -0.000119 -1.207637 0.351755 -21.459217 139.999771
[Rope3_Seg08]
17 139.999985 -0.000060 0.000000 -0.980019 0.457775 -7.510565 139.999985
18 139.999985 -0.000060 0.000000 -1.140142 0.019540 -8.156316 139.999985
[Rope3_Seg09]
17 90.185997 -0.000179 -0.000060 89.793228 -1.359877 -0.847183 90.185997
18 90.185997 -0.000179 -0.000060 89.793228 -1.359877 -0.847183 90.185997
[R_rear_hand01]
17 103.366196 -6.073594 -10.757982 -171.885513 23.373785 -59.632885 104.101845
18 103.366196 -6.073594 -10.757982 -174.043228 23.976633 -65.003006 104.101845
[R_rear_hand02]
17 100.509819 12.039542 -7.992327 -21.647255 32.954239 56.905464 101.543350
18 100.509819 12.039542 -7.992327 -18.533079 34.659107 62.503922 101.543350
[R_rear_hand03]
17 101.539970 5.215704 5.435467 78.870155 -59.127991 13.449200 101.819031
18 101.539970 5.215704 5.435467 76.952393 -63.971806 15.629128 101.819031
[Rope4_Seg01]
17 -0.000011 -0.000015 -0.000153 -102.380722 25.563406 -107.876396 0.000154
18 -0.000011 -0.000011 -0.000153 -101.904724 26.083637 -106.427574 0.000153
[Rope4_Seg02]
17 139.999985 0.000060 0.000119 -0.382136 -4.295230 0.599999 139.999985
18 139.999985 0.000060 0.000119 -0.319383 -4.350244 0.503770 139.999985
[Rope4_Seg03]
17 139.999924 0.000000 -0.000238 -0.236796 -4.691894 0.625143 139.999924
18 139.999924 0.000000 -0.000238 -0.168699 -4.781491 0.523509 139.999924
[Rope4_Seg04]
17 139.999985 0.000000 0.000119 0.155357 -12.895343 0.665992 139.999985
18 139.999985 0.000000 0.000119 0.527561 -15.081595 -0.053201 139.999985
[Rope4_Seg05]
17 139.999802 -0.000060 -0.000119 0.339827 -2.849568 0.725406 139.999802
18 139.999802 -0.000060 -0.000119 0.329260 -1.138417 0.878775 139.999802
[Rope4_Seg06]
17 139.999924 0.000000 0.000060 0.078851 19.231468 0.396271 139.999924
18 139.999924 0.000000 0.000060 0.564244 24.702732 2.013817 139.999924
[Rope4_Seg07]
17 139.999802 0.000000 0.000000 1.652661 13.921713 0.218408 139.999802
18 139.999802 0.000000 0.000000 2.208519 15.301506 1.121908 139.999802
[Rope4_Seg08]
17 139.999924 0.000000 0.000119 -0.448925 5.518276 -0.000170 139.999924
18 139.999924 0.000000 0.000119 -0.251640 5.741704 0.281203 139.999924
[Rope4_Seg09]
17 90.185791 0.000060 0.000060 -135.617828 2.228885 0.850567 90.185791
18 90.185791 0.000060 0.000060 -135.617828 2.228885 0.850567 90.185791
[L_rear_hand01]
17 101.696655 -8.392275 -7.654577 -14.676040 -36.272415 110.857796 102.329041
18 101.696655 -8.392275 -7.654577 -13.354953 -36.717747 108.641335 102.329041
[L_rear_hand02]
17 102.726799 -1.568258 5.773216 73.610291 69.437737 160.740738 102.900848
18 102.726799 -1.568258 5.773216 72.111557 71.190033 159.144608 102.900848
[L_rear_hand03]
17 104.552910 9.721220 -10.420293 -176.571304 -24.441328 -108.830574 105.519653
18 104.552910 9.721220 -10.420293 -177.406555 -24.537506 -106.814919 105.519653
